<svg width="192" height="39" viewBox="0 0 192 39" fill="none" xmlns="http://www.w3.org/2000/svg">
<path d="M4.45555 19.9873C4.45555 17.0357 4.46496 15.8813 4.62557 14.961C5.45333 10.2181 9.16732 6.50412 13.9102 5.67635C14.8305 5.51574 15.9849 5.50633 18.9366 5.50633H47.3416C50.2933 5.50633 51.4477 5.51574 52.368 5.67635C57.1109 6.50412 60.8248 10.2181 61.6526 14.961C61.8132 15.8813 61.8226 17.0357 61.8226 19.9873V26.9585C61.8226 31.1061 58.4604 34.4684 54.3128 34.4684C52.8768 34.4684 51.4709 34.0567 50.2617 33.282L47.1106 31.2633C46.9632 31.1689 46.8178 31.0757 46.6741 30.9836C42.5044 28.3109 39.8446 26.6061 36.9076 25.9832C34.6981 25.5146 32.4158 25.5066 30.2031 25.9597C27.2618 26.5619 24.5901 28.2481 20.4018 30.8914C20.2574 30.9825 20.1113 31.0747 19.9634 31.168L16.6799 33.2391L17.7366 34.9144L16.6799 33.2391C15.4068 34.0422 13.9323 34.4684 12.4271 34.4684C8.02452 34.4684 4.45555 30.8994 4.45555 26.4968V19.9873Z" stroke="black" stroke-width="5.01266"/>
<circle cx="15.8738" cy="13.5823" r="3.06329" fill="black"/>
<circle cx="11.8355" cy="17.6202" r="1.81013" fill="black"/>
<rect y="16.3671" width="3.62025" height="9.74684" rx="1.39241" fill="black"/>
<rect x="62.3799" y="16.3671" width="3.62025" height="9.74684" rx="1.39241" fill="black"/>
<path d="M88.257 13.0939H78.9138C76.7321 13.0939 75.4358 14.1531 75.0247 16.2716C74.6137 18.39 75.7836 20.7139 78.5343 23.2434C80.2022 24.5555 79.9176 25.18 77.6807 25.1168H74.0762V30.2152H83.1822C85.6485 29.8042 86.9053 28.5394 86.9527 26.421C87.0001 24.3026 85.7433 22.1209 83.1822 19.876C81.7515 18.6904 82.0519 18.1291 84.0834 18.1924H88.257V13.0939ZM93.8297 13.0939V18.6666L97.7424 13.0939H103.315L96.9362 21.6546L99.7818 25.1168H104.904V30.2152H98.1456L93.8297 25.1168V30.2152H88.257V13.0939H93.8297ZM119.599 21.7494C119.599 23.6228 119.208 25.2195 118.425 26.5396C117.642 27.8596 116.508 28.8517 115.022 29.5157C113.544 30.1796 111.777 30.5116 109.722 30.5116C107.667 30.5116 105.9 30.1796 104.422 29.5157C102.952 28.8438 101.837 27.8557 101.078 26.5514C100.32 25.2393 99.9402 23.6386 99.9402 21.7494C99.9402 20.3187 100.158 19.0619 100.592 17.9789C101.027 16.8881 101.663 15.9712 102.501 15.2282C103.339 14.4851 104.367 13.9239 105.584 13.5445C106.801 13.1572 108.181 12.9635 109.722 12.9635C111.769 12.9635 113.536 13.3034 115.022 13.9832C116.508 14.6551 117.642 15.651 118.425 16.9711C119.208 18.2833 119.599 19.876 119.599 21.7494ZM106.023 21.7968C106.023 22.8956 106.268 23.852 106.758 24.6662C107.256 25.4804 108.232 25.8875 109.687 25.8875C110.809 25.8875 111.647 25.674 112.2 25.2472C112.761 24.8203 113.109 24.3342 113.244 23.7888C113.386 23.2355 113.481 22.5715 113.528 21.7968C113.481 20.6981 113.216 19.7417 112.734 18.9275C112.252 18.1054 111.236 17.6944 109.687 17.6944C107.244 17.6944 106.023 19.0619 106.023 21.7968ZM135.124 21.7494C135.124 23.6228 134.732 25.2195 133.95 26.5396C133.167 27.8596 132.033 28.8517 130.547 29.5157C129.069 30.1796 127.302 30.5116 125.247 30.5116C123.192 30.5116 121.425 30.1796 119.947 29.5157C118.477 28.8438 117.362 27.8557 116.603 26.5514C115.845 25.2393 115.465 23.6386 115.465 21.7494C115.465 20.3187 115.682 19.0619 116.117 17.9789C116.552 16.8881 117.188 15.9712 118.026 15.2282C118.864 14.4851 119.892 13.9239 121.109 13.5445C122.326 13.1572 123.706 12.9635 125.247 12.9635C127.294 12.9635 129.061 13.3034 130.547 13.9832C132.033 14.6551 133.167 15.651 133.95 16.9711C134.732 18.2833 135.124 19.876 135.124 21.7494ZM121.548 21.7968C121.548 22.8956 121.793 23.852 122.283 24.6662C122.781 25.4804 123.757 25.8875 125.211 25.8875C126.334 25.8875 127.172 25.674 127.725 25.2472C128.286 24.8203 128.634 24.3342 128.768 23.7888C128.911 23.2355 129.006 22.5715 129.053 21.7968C129.006 20.6981 128.741 19.7417 128.259 18.9275C127.776 18.1054 126.761 17.6944 125.211 17.6944C122.769 17.6944 121.548 19.0619 121.548 21.7968ZM135.954 30.2152V13.0939H141.526V25.1168H150.799V30.2152H135.954ZM152.615 13.0939L158.638 30.2152H167.732L173.839 13.0939H166.974L163.037 26.2432L159.148 13.0939H152.615ZM173.602 25.8045V13.0939H184.747C186.122 13.2204 187.225 13.5603 188.055 14.1136C188.885 14.6669 189.45 15.2005 189.751 15.7143C190.051 16.2281 190.264 16.8565 190.391 17.5995C190.517 18.3426 190.434 19.1528 190.142 20.0302C189.849 20.9076 189.347 21.6229 188.636 22.1763C187.925 22.7296 186.905 23.1643 185.577 23.4805L189.988 30.6895C190.272 31.1005 190.699 31.2665 191.268 31.1875V36.2859C189.008 36.3492 187.529 35.9065 186.834 34.9579L179.791 24.5595V30.2152H173.602V25.8045ZM179.791 17.3624V20.5163H184.107C184.336 20.5163 184.585 20.4333 184.854 20.2673C185.123 20.0934 185.265 19.6626 185.281 18.9749C185.241 18.3188 185.079 17.888 184.794 17.6825C184.518 17.4691 184.285 17.3624 184.095 17.3624H179.791Z" fill="black"/>
</svg>
